<svg width="496" height="447" viewBox="0 0 496 447" fill="none" xmlns="http://www.w3.org/2000/svg">
<g clip-path="url(#clip0_105_120)">
<rect width="496" height="447" fill="white"/>
<path d="M82 214C82 191.909 99.9086 174 122 174H374.737C396.828 174 414.737 191.909 414.737 214V522.474H82V214Z" fill="#EAEAEA"/>
<path d="M93.2411 217.489C93.2411 200.921 106.673 187.489 123.241 187.489H371.247C387.816 187.489 401.247 200.921 401.247 217.489V522.474H93.2411V217.489Z" fill="white"/>
<path d="M325.932 201.096C325.932 206.618 321.455 211.096 315.932 211.096L180.805 211.096C175.282 211.096 170.805 206.618 170.805 201.096L170.805 187.489L325.932 187.489L325.932 201.096Z" fill="#EAEAEA"/>
<mask id="path-4-outside-1_105_120" maskUnits="userSpaceOnUse" x="93" y="267" width="308" height="81" fill="black">
<rect fill="white" x="93" y="267" width="308" height="81"/>
<path d="M93 267H401V347H93V267Z"/>
</mask>
<path d="M93 267H401V347H93V267Z" fill="white"/>
<path d="M401 346H93V348H401V346Z" fill="#D8D8D8" mask="url(#path-4-outside-1_105_120)"/>
<g clip-path="url(#clip1_105_120)">
<path d="M146.082 327H119.918C116.097 327 113 323.903 113 320.082V293.918C113 290.097 116.097 287 119.918 287H146.082C149.903 287 153 290.097 153 293.918V320.082C153 323.903 149.903 327 146.082 327Z" fill="#41BCD8"/>
<g clip-path="url(#clip2_105_120)">
<path d="M148.206 307.117C147.591 307.353 146.988 307.29 146.465 306.932C146.332 306.842 146.198 306.693 146.079 306.562C146.02 306.497 145.969 306.438 145.925 306.397C145.754 306.241 145.473 306.052 145.107 306.052C144.775 306.052 144.587 306.206 144.554 306.495L143.808 318.04C143.808 318.793 143.27 319.188 142.737 319.188C142.205 319.188 141.667 318.793 141.667 318.055L140.926 306.575C140.923 306.521 140.871 306.052 140.298 306.052C139.819 306.052 139.732 306.453 139.717 306.582L138.928 313.731L138.922 313.758C138.771 314.393 138.274 314.675 137.844 314.675H137.838C137.328 314.673 136.916 314.312 136.789 313.755L135.996 306.582C135.99 306.528 135.917 306.054 135.347 306.054C134.627 306.054 134.423 306.726 134.379 306.921L134.071 308.764L134.062 308.81C133.944 309.303 133.525 309.63 133.016 309.63H132.985C132.473 309.63 132.054 309.303 131.936 308.809L131.62 306.931C131.574 306.724 131.372 306.052 130.65 306.052C130.083 306.052 130.009 306.523 130.002 306.58L129.212 313.729L129.208 313.753C129.083 314.308 128.672 314.67 128.161 314.673H128.156C127.726 314.673 127.226 314.389 127.077 313.756L126.282 306.575C126.267 306.453 126.181 306.052 125.702 306.052C125.222 306.052 125.108 306.357 125.075 306.545L124.333 318.04C124.333 318.793 123.793 319.188 123.262 319.188C122.731 319.188 122.191 318.793 122.191 318.055L121.451 306.573L121.447 306.506C121.412 306.206 121.227 306.052 120.894 306.052C120.531 306.052 120.249 306.241 120.077 306.397C120.033 306.438 119.981 306.497 119.923 306.562C119.803 306.694 119.669 306.844 119.537 306.932C119.013 307.288 118.411 307.351 117.795 307.117C117.305 306.929 116.723 306.464 116.723 305.311C116.723 304.158 117.307 303.693 117.795 303.505C118.411 303.269 119.013 303.331 119.537 303.689C119.669 303.78 119.803 303.929 119.923 304.06C119.981 304.125 120.033 304.184 120.077 304.224C120.248 304.383 120.529 304.569 120.894 304.569C121.431 304.569 121.466 304.147 121.467 304.066H121.478L122.191 295.95C122.197 295.203 122.733 294.814 123.262 294.814C123.791 294.814 124.329 295.205 124.333 295.95L125.044 304.042C125.053 304.108 125.139 304.571 125.702 304.571C126.552 304.571 126.697 304.038 126.701 304.021L127.077 302.167C127.228 301.533 127.726 301.25 128.156 301.25H128.161C128.672 301.252 129.083 301.614 129.21 302.175L129.585 304.018C129.601 304.086 129.759 304.606 130.52 304.571C130.955 304.549 131.11 303.815 131.11 303.815L131.929 298.088V298.061L131.938 298.037C132.057 297.548 132.473 297.223 132.978 297.221H133.024C133.531 297.225 133.944 297.55 134.063 298.037L134.073 298.062L134.89 303.807C134.89 303.807 135.042 304.551 135.481 304.573C136.249 304.612 136.402 304.078 136.415 304.023L136.789 302.171C136.914 301.616 137.326 301.254 137.838 301.25H137.844C138.274 301.25 138.773 301.534 138.924 302.175L139.297 304.018C139.297 304.018 139.431 304.571 140.296 304.571C140.866 304.571 140.939 304.095 140.946 304.043L140.983 303.717L141.665 295.95C141.67 295.203 142.207 294.814 142.736 294.814C143.265 294.814 143.803 295.205 143.807 295.95L144.519 304.064H144.53C144.53 304.149 144.567 304.569 145.103 304.569C145.467 304.569 145.748 304.381 145.921 304.224C145.963 304.185 146.016 304.125 146.075 304.06C146.195 303.927 146.329 303.778 146.461 303.689C146.984 303.333 147.587 303.269 148.202 303.505C148.693 303.693 149.275 304.158 149.275 305.311C149.275 306.464 148.691 306.929 148.202 307.117H148.206Z" fill="white"/>
</g>
</g>
<path d="M167.689 305.654C169.422 305.654 170.805 305.621 171.84 305.554C172.875 305.488 173.896 305.358 174.903 305.164L175.061 306.426C174.358 306.57 173.658 306.678 172.96 306.75C172.269 306.816 171.522 306.863 170.719 306.891C169.917 306.918 168.907 306.935 167.689 306.94H166.444V305.654H167.689ZM173.517 301.761H168.005V306.517H166.444V300.458H173.517V301.761ZM177.883 307.538H176.314V299.528H177.883V307.538ZM169.707 309.979H176.322V308.252H177.883V314.22H168.146V308.252H169.707V309.979ZM176.322 312.942V311.224H169.707V312.942H176.322ZM198.004 312.56H184.391V311.265H198.004V312.56ZM191.936 311.63H190.392V307.795H191.936V311.63ZM187.528 303.114H194.833V300.549H196.385V308.21H185.943V300.549H187.528V303.114ZM194.833 306.932V304.384H187.528V306.932H194.833ZM211.41 314.444H209.824V299.528H211.41V314.444ZM203.441 300.648C204.182 300.648 204.844 300.861 205.425 301.288C206.006 301.714 206.46 302.322 206.786 303.114C207.113 303.905 207.276 304.824 207.276 305.87C207.276 306.921 207.113 307.842 206.786 308.634C206.46 309.42 206.006 310.026 205.425 310.452C204.844 310.878 204.182 311.091 203.441 311.091C202.699 311.091 202.035 310.878 201.449 310.452C200.868 310.026 200.414 309.42 200.087 308.634C199.761 307.842 199.598 306.921 199.598 305.87C199.598 304.824 199.761 303.905 200.087 303.114C200.414 302.322 200.868 301.714 201.449 301.288C202.035 300.861 202.699 300.648 203.441 300.648ZM203.441 302.06C202.987 302.06 202.583 302.215 202.229 302.524C201.875 302.834 201.601 303.277 201.407 303.853C201.214 304.428 201.119 305.1 201.125 305.87C201.119 306.644 201.214 307.319 201.407 307.895C201.601 308.465 201.875 308.905 202.229 309.215C202.583 309.519 202.987 309.671 203.441 309.671C203.895 309.671 204.296 309.519 204.645 309.215C204.999 308.905 205.273 308.465 205.466 307.895C205.66 307.319 205.757 306.644 205.757 305.87C205.757 305.1 205.66 304.428 205.466 303.853C205.273 303.277 204.999 302.834 204.645 302.524C204.296 302.215 203.895 302.06 203.441 302.06ZM221.055 301.645C221.055 302.69 220.776 303.667 220.217 304.575C219.663 305.482 218.922 306.251 217.992 306.882C217.068 307.513 216.061 307.95 214.971 308.194L214.265 306.874C215.206 306.697 216.091 306.346 216.921 305.82C217.751 305.294 218.416 304.663 218.914 303.927C219.417 303.191 219.669 302.43 219.669 301.645V300.532H221.055V301.645ZM221.329 301.645C221.329 302.436 221.581 303.2 222.084 303.936C222.588 304.672 223.255 305.302 224.085 305.828C224.921 306.354 225.812 306.702 226.758 306.874L226.052 308.194C224.968 307.95 223.96 307.516 223.031 306.891C222.101 306.26 221.36 305.491 220.806 304.583C220.253 303.675 219.976 302.696 219.976 301.645V300.532H221.329V301.645ZM227.389 312.452H213.775V311.149H227.389V312.452Z" fill="#333333"/>
<rect x="333" y="295" width="48" height="24" rx="12" fill="#3F52FF"/>
<circle cx="369" cy="307" r="8.8" fill="white"/>
<rect width="308" height="52" transform="translate(93 215)" fill="white"/>
<path d="M193.797 232.082V238.781H196.512V240.559H193.797V249.758H191.629V232.082H193.797ZM180.691 245.441V233.762H188.953V235.52H182.859V243.625C185.604 243.615 187.781 243.479 190.203 243.059L190.457 244.895C187.713 245.363 185.34 245.441 182.156 245.441H180.691ZM213.367 241.711V243.449H197.234V241.711H213.367ZM199.227 234.25V232.551H211.375V237.258H201.434V238.762H211.727V240.402H199.285V235.695H209.207V234.25H199.227ZM199.305 249.387V244.562H201.492V247.629H211.766V249.387H199.305ZM223.445 233.059C225.809 233.049 227.508 234.719 227.508 237.121C227.508 239.504 225.809 241.174 223.445 241.184C221.072 241.174 219.393 239.504 219.402 237.121C219.393 234.719 221.072 233.049 223.445 233.059ZM221.355 237.121C221.336 238.508 222.215 239.387 223.445 239.387C224.656 239.387 225.535 238.508 225.535 237.121C225.535 235.695 224.656 234.816 223.445 234.816C222.215 234.816 221.336 235.695 221.355 237.121ZM222.469 249.523V242.434H224.617V244.211H232.234V242.434H234.383V249.523H222.469ZM224.617 247.766H232.234V245.93H224.617V247.766ZM228.523 241.574V232.434H230.555V235.891H232.312V232.102H234.383V241.691H232.312V237.688H230.555V241.574H228.523ZM247.078 232.863C249.764 232.854 251.707 234.357 251.707 236.574C251.707 238.752 249.764 240.275 247.078 240.266C244.422 240.275 242.488 238.752 242.488 236.574C242.488 234.357 244.422 232.854 247.078 232.863ZM241.336 241.477C244.52 241.477 248.982 241.418 252.781 240.852L252.938 242.453C251.414 242.746 249.832 242.932 248.289 243.049V249.191H246.102V243.176C244.471 243.244 242.938 243.264 241.609 243.273L241.336 241.477ZM244.598 236.574C244.588 237.756 245.633 238.498 247.078 238.488C248.582 238.498 249.637 237.756 249.637 236.574C249.637 235.354 248.582 234.602 247.078 234.621C245.633 234.602 244.588 235.354 244.598 236.574ZM253.934 249.719V232.102H256.082V249.719H253.934ZM273.836 232.082V249.738H271.746V232.082H273.836ZM258.777 239.719C258.777 235.832 260.281 233.42 262.586 233.43C264.725 233.42 266.18 235.422 266.434 238.723H268.133V232.395H270.203V248.879H268.133V240.48H266.453C266.248 243.928 264.773 246.037 262.586 246.027C260.281 246.037 258.777 243.615 258.777 239.719ZM260.789 239.719C260.779 242.482 261.463 243.967 262.586 243.957C263.758 243.967 264.451 242.482 264.461 239.719C264.451 236.965 263.758 235.471 262.586 235.48C261.463 235.471 260.779 236.965 260.789 239.719ZM296.766 245.949V247.707H280.633V245.949H284.812V242.316H282.02V240.559H284.5V235.324H281.961V233.586H295.359V235.324H292.781V240.559H295.301V242.316H292.508V245.949H296.766ZM286.668 240.559H290.633V235.324H286.668V240.559ZM286.98 245.949H290.34V242.316H286.98V245.949ZM304.598 236.32C304.578 239.562 306.287 242.805 309.148 244.035L307.859 245.773C305.828 244.836 304.344 242.971 303.523 240.666C302.713 243.146 301.189 245.178 299.051 246.184L297.723 244.367C300.662 243.098 302.381 239.729 302.391 236.32V233.508H304.598V236.32ZM310.418 249.758V232.082H312.605V249.758H310.418Z" fill="black"/>
<path fill-rule="evenodd" clip-rule="evenodd" d="M116.547 248.996C116.68 248.973 116.799 248.898 116.896 248.774C116.964 248.688 117.019 248.581 117.048 248.479C117.079 248.37 117.089 248.294 117.089 248.169C117.089 247.977 117.051 247.826 116.965 247.672C116.954 247.651 115.831 246.141 114.471 244.317L111.998 241L114.471 237.683C115.831 235.859 116.954 234.349 116.965 234.328C117.051 234.174 117.089 234.023 117.089 233.831C117.089 233.629 117.051 233.477 116.962 233.323C116.841 233.115 116.668 233 116.473 233C116.339 233 116.218 233.052 116.113 233.156C116.061 233.206 110.928 240.089 110.883 240.168C110.8 240.312 110.738 240.482 110.703 240.661C110.68 240.778 110.672 240.866 110.672 241C110.672 241.134 110.68 241.222 110.703 241.339C110.738 241.518 110.8 241.688 110.883 241.832C110.928 241.911 116.061 248.794 116.113 248.844C116.22 248.95 116.341 249.001 116.478 248.999C116.508 248.998 116.539 248.997 116.547 248.996Z" fill="black"/>
<path d="M122.469 78.3203C124.016 78.3203 125.359 78.4844 126.5 78.8125C127.648 79.1406 128.531 79.6133 129.148 80.2305C129.766 80.8477 130.074 81.582 130.074 82.4336C130.074 83.2695 129.766 83.9961 129.148 84.6133C128.531 85.2227 127.648 85.6875 126.5 86.0078C125.359 86.3203 124.016 86.4766 122.469 86.4766C120.914 86.4766 119.562 86.3203 118.414 86.0078C117.266 85.6875 116.379 85.2227 115.754 84.6133C115.129 83.9961 114.816 83.2695 114.816 82.4336C114.816 81.582 115.129 80.8477 115.754 80.2305C116.379 79.6133 117.266 79.1406 118.414 78.8125C119.562 78.4844 120.914 78.3203 122.469 78.3203ZM122.469 80.3594C121.422 80.3594 120.527 80.4375 119.785 80.5938C119.051 80.75 118.488 80.9844 118.098 81.2969C117.715 81.6094 117.523 81.9883 117.523 82.4336C117.523 82.8633 117.715 83.2266 118.098 83.5234C118.488 83.8203 119.051 84.0508 119.785 84.2148C120.527 84.3711 121.422 84.4492 122.469 84.4492C123.492 84.4492 124.371 84.3711 125.105 84.2148C125.848 84.0508 126.414 83.8203 126.805 83.5234C127.203 83.2266 127.402 82.8633 127.402 82.4336C127.402 81.9883 127.203 81.6094 126.805 81.2969C126.414 80.9844 125.848 80.75 125.105 80.5938C124.371 80.4375 123.492 80.3594 122.469 80.3594ZM129.781 98.8164H115.098V91.6797H129.781V98.8164ZM117.664 96.7188H127.238V93.7539H117.664V96.7188ZM132.113 90.0156H112.824V87.9062H132.113V90.0156ZM140.832 81.0508C140.832 82.4727 140.602 83.793 140.141 85.0117C139.68 86.2227 138.996 87.2773 138.09 88.1758C137.191 89.0742 136.098 89.75 134.809 90.2031L133.414 88.0938C134.555 87.7188 135.52 87.1758 136.309 86.4648C137.105 85.7539 137.699 84.9375 138.09 84.0156C138.488 83.0859 138.691 82.0977 138.699 81.0508V79.0469H140.832V81.0508ZM141.312 80.9336C141.312 81.918 141.5 82.8438 141.875 83.7109C142.25 84.5703 142.809 85.3359 143.551 86.0078C144.301 86.6719 145.215 87.1758 146.293 87.5195L144.887 89.5469C143.66 89.1094 142.621 88.4727 141.77 87.6367C140.926 86.8008 140.289 85.8164 139.859 84.6836C139.43 83.543 139.215 82.293 139.215 80.9336V79.0469H141.312V80.9336ZM151.297 90.3555H148.695V77.8984H151.297V90.3555ZM144.137 90.9297C145.621 90.9297 146.906 91.0898 147.992 91.4102C149.078 91.7227 149.91 92.1875 150.488 92.8047C151.074 93.4141 151.367 94.1484 151.367 95.0078C151.367 95.8594 151.074 96.5859 150.488 97.1875C149.91 97.7969 149.078 98.2578 147.992 98.5703C146.906 98.8906 145.621 99.0508 144.137 99.0508C142.645 99.0508 141.359 98.8906 140.281 98.5703C139.203 98.2578 138.371 97.7969 137.785 97.1875C137.207 96.5859 136.918 95.8594 136.918 95.0078C136.918 94.1562 137.207 93.4219 137.785 92.8047C138.371 92.1875 139.203 91.7227 140.281 91.4102C141.359 91.0898 142.645 90.9297 144.137 90.9297ZM144.137 92.957C143.145 92.957 142.305 93.0352 141.617 93.1914C140.93 93.3477 140.406 93.5781 140.047 93.8828C139.688 94.1875 139.508 94.5625 139.508 95.0078C139.508 95.4375 139.688 95.8008 140.047 96.0977C140.406 96.3945 140.93 96.6211 141.617 96.7773C142.312 96.9336 143.152 97.0117 144.137 97.0117C145.121 97.0117 145.957 96.9336 146.645 96.7773C147.34 96.6211 147.867 96.3945 148.227 96.0977C148.586 95.8008 148.766 95.4375 148.766 95.0078C148.766 94.5625 148.586 94.1875 148.227 93.8828C147.875 93.5781 147.352 93.3477 146.656 93.1914C145.961 93.0352 145.121 92.957 144.137 92.957ZM149.105 84.1445H144.477V82.0117H149.105V84.1445ZM177.652 93.2266H175.039V77.9219H177.652V93.2266ZM178.25 98.6875H163.637V96.5547H178.25V98.6875ZM166.262 97.3867H163.637V91.6797H166.262V97.3867ZM166.109 79.3047C167.172 79.3047 168.137 79.5352 169.004 79.9961C169.879 80.4492 170.566 81.0781 171.066 81.8828C171.566 82.6797 171.816 83.582 171.816 84.5898C171.816 85.6211 171.566 86.543 171.066 87.3555C170.566 88.1602 169.883 88.7891 169.016 89.2422C168.148 89.6953 167.18 89.9219 166.109 89.9219C165.039 89.9219 164.07 89.6953 163.203 89.2422C162.344 88.7891 161.66 88.1602 161.152 87.3555C160.652 86.543 160.402 85.6211 160.402 84.5898C160.402 83.582 160.652 82.6797 161.152 81.8828C161.66 81.0781 162.344 80.4492 163.203 79.9961C164.07 79.5352 165.039 79.3047 166.109 79.3047ZM166.109 81.5898C165.508 81.5898 164.965 81.7148 164.48 81.9648C164.004 82.207 163.629 82.5586 163.355 83.0195C163.082 83.4727 162.945 83.9961 162.945 84.5898C162.945 85.207 163.082 85.7461 163.355 86.207C163.629 86.668 164.004 87.0234 164.48 87.2734C164.965 87.5234 165.508 87.6445 166.109 87.6367C166.703 87.6445 167.238 87.5234 167.715 87.2734C168.191 87.0234 168.562 86.668 168.828 86.207C169.102 85.7461 169.238 85.207 169.238 84.5898C169.238 83.9961 169.102 83.4727 168.828 83.0195C168.562 82.5586 168.191 82.207 167.715 81.9648C167.238 81.7148 166.703 81.5898 166.109 81.5898ZM188.223 83.8984C188.223 85.5 187.973 87.043 187.473 88.5273C186.98 90.0117 186.277 91.3281 185.363 92.4766C184.449 93.6172 183.383 94.4766 182.164 95.0547L180.652 93.0039C181.746 92.5039 182.703 91.7695 183.523 90.8008C184.352 89.8242 184.988 88.7383 185.434 87.543C185.879 86.3398 186.102 85.125 186.102 83.8984V81.1094H188.223V83.8984ZM188.75 83.8984C188.75 85.0859 188.969 86.2461 189.406 87.3789C189.852 88.5039 190.484 89.5195 191.305 90.4258C192.133 91.332 193.098 92.0156 194.199 92.4766L192.781 94.5273C191.523 93.9805 190.434 93.168 189.512 92.0898C188.598 91.0039 187.895 89.7578 187.402 88.3516C186.918 86.9453 186.68 85.4609 186.688 83.8984V81.1094H188.75V83.8984ZM193.391 82.1289H181.449V79.9961H193.391V82.1289ZM198.383 99.0625H195.746V77.8984H198.383V99.0625ZM213.805 87.9766H210.078V85.8789H213.805V87.9766ZM219.781 99.0625H217.273V77.8984H219.781V99.0625ZM215.422 98.0664H212.949V78.2617H215.422V98.0664ZM206.293 79.5039C207.223 79.5039 208.035 79.8125 208.73 80.4297C209.434 81.0391 209.977 81.9141 210.359 83.0547C210.742 84.1953 210.934 85.5312 210.934 87.0625C210.934 88.6016 210.742 89.9414 210.359 91.082C209.977 92.2227 209.434 93.1016 208.73 93.7188C208.035 94.3359 207.223 94.6445 206.293 94.6445C205.371 94.6445 204.566 94.3359 203.879 93.7188C203.199 93.1016 202.664 92.2227 202.273 91.082C201.891 89.9414 201.699 88.6016 201.699 87.0625C201.699 85.5312 201.891 84.1953 202.273 83.0547C202.664 81.9141 203.199 81.0391 203.879 80.4297C204.566 79.8125 205.371 79.5039 206.293 79.5039ZM206.293 81.9648C205.84 81.9648 205.449 82.1602 205.121 82.5508C204.793 82.9336 204.543 83.5078 204.371 84.2734C204.199 85.0391 204.117 85.9688 204.125 87.0625C204.117 88.1562 204.199 89.082 204.371 89.8398C204.543 90.5977 204.793 91.1719 205.121 91.5625C205.449 91.9531 205.84 92.1484 206.293 92.1484C206.754 92.1484 207.152 91.9531 207.488 91.5625C207.824 91.1719 208.078 90.5977 208.25 89.8398C208.43 89.082 208.52 88.1562 208.52 87.0625C208.52 85.9688 208.43 85.0391 208.25 84.2734C208.078 83.5078 207.824 82.9336 207.488 82.5508C207.152 82.1602 206.754 81.9648 206.293 81.9648ZM246.184 99.0625H243.723V77.8984H246.184V99.0625ZM244.332 88.293H240.57V86.1953H244.332V88.293ZM241.32 98.0195H238.941V78.2969H241.32V98.0195ZM230.059 91.9375C231.668 91.9375 233.031 91.9023 234.148 91.832C235.273 91.7617 236.422 91.6172 237.594 91.3984L237.793 93.5312C236.605 93.7656 235.441 93.9219 234.301 94C233.16 94.0781 231.746 94.1211 230.059 94.1289H228.617V91.9375H230.059ZM236.527 82.5156H231.23V92.9922H228.617V80.4062H236.527V82.5156ZM265.414 93.7539H262.812V77.9219H265.414V93.7539ZM268.379 86.7227H264.641V84.5781H268.379V86.7227ZM261.289 82.3398H248.715V80.2656H261.289V82.3398ZM255.008 83.2188C256.016 83.2188 256.91 83.3867 257.691 83.7227C258.48 84.0586 259.09 84.5352 259.52 85.1523C259.957 85.7617 260.18 86.4688 260.188 87.2734C260.18 88.0703 259.957 88.7734 259.52 89.3828C259.09 89.9844 258.48 90.4492 257.691 90.7773C256.91 91.1055 256.016 91.2695 255.008 91.2695C253.992 91.2695 253.09 91.1055 252.301 90.7773C251.52 90.4492 250.91 89.9844 250.473 89.3828C250.035 88.7734 249.816 88.0703 249.816 87.2734C249.816 86.4688 250.035 85.7617 250.473 85.1523C250.91 84.5352 251.52 84.0586 252.301 83.7227C253.09 83.3867 253.992 83.2188 255.008 83.2188ZM255.008 85.2344C254.477 85.2344 254.008 85.3125 253.602 85.4688C253.195 85.625 252.883 85.8594 252.664 86.1719C252.445 86.4844 252.336 86.8516 252.336 87.2734C252.336 87.6953 252.445 88.0547 252.664 88.3516C252.883 88.6484 253.195 88.8789 253.602 89.043C254.008 89.1992 254.477 89.2734 255.008 89.2656C255.539 89.2734 256.008 89.1992 256.414 89.043C256.828 88.8789 257.148 88.6484 257.375 88.3516C257.602 88.0547 257.715 87.6953 257.715 87.2734C257.715 86.8516 257.602 86.4844 257.375 86.1719C257.148 85.8594 256.828 85.625 256.414 85.4688C256.008 85.3125 255.539 85.2344 255.008 85.2344ZM256.32 81.2969H253.707V77.9102H256.32V81.2969ZM266.246 98.6875H251.844V96.5547H266.246V98.6875ZM254.434 97.4453H251.844V92.5117H254.434V97.4453ZM291.875 88.5508H289.273V77.8984H291.875V88.5508ZM294.84 84.3203H290.773V82.1641H294.84V84.3203ZM291.875 95.0195H280.613V97.8086H278.047V93.1094H289.273V91.4688H278.012V89.4414H291.875V95.0195ZM292.543 98.8164H278.047V96.7656H292.543V98.8164ZM281.023 78.5898C282.094 78.5898 283.055 78.793 283.906 79.1992C284.766 79.5977 285.434 80.1602 285.91 80.8867C286.395 81.6055 286.641 82.4258 286.648 83.3477C286.641 84.2617 286.395 85.0781 285.91 85.7969C285.434 86.5156 284.766 87.082 283.906 87.4961C283.047 87.9102 282.086 88.1172 281.023 88.1172C279.961 88.1172 279 87.9102 278.141 87.4961C277.289 87.082 276.617 86.5156 276.125 85.7969C275.641 85.0781 275.398 84.2617 275.398 83.3477C275.398 82.4258 275.641 81.6055 276.125 80.8867C276.617 80.1602 277.289 79.5977 278.141 79.1992C279 78.793 279.961 78.5898 281.023 78.5898ZM281.023 80.7227C280.43 80.7227 279.898 80.832 279.43 81.0508C278.969 81.2617 278.605 81.5664 278.34 81.9648C278.074 82.3633 277.941 82.8242 277.941 83.3477C277.941 83.8789 278.074 84.3477 278.34 84.7539C278.605 85.1523 278.969 85.4648 279.43 85.6914C279.898 85.918 280.43 86.0312 281.023 86.0312C281.617 86.0312 282.148 85.918 282.617 85.6914C283.086 85.4648 283.449 85.1523 283.707 84.7539C283.973 84.3477 284.105 83.8789 284.105 83.3477C284.105 82.8242 283.973 82.3633 283.707 81.9648C283.449 81.5664 283.086 81.2617 282.617 81.0508C282.148 80.832 281.617 80.7227 281.023 80.7227ZM312.617 90.5078H310.016V77.9219H312.617V90.5078ZM315.605 85.2461H311.832V83.0781H315.605V85.2461ZM312.617 98.8164H298.906V91.4453H312.617V98.8164ZM301.473 96.7188H310.062V93.4727H301.473V96.7188ZM298.473 87.4844C300.676 87.4844 302.492 87.4453 303.922 87.3672C305.359 87.2891 306.812 87.125 308.281 86.875L308.551 88.9258C307.066 89.1992 305.578 89.3867 304.086 89.4883C302.594 89.582 300.723 89.6289 298.473 89.6289H296.738V87.4844H298.473ZM306.395 85.2109H299.328V88.6914H296.738V83.2422H303.84V81.0977H296.703V78.9883H306.395V85.2109ZM326.305 78.2383C327.898 78.2383 329.266 78.375 330.406 78.6484C331.555 78.9219 332.426 79.332 333.02 79.8789C333.613 80.418 333.91 81.0742 333.91 81.8477C333.91 82.6367 333.613 83.3047 333.02 83.8516C332.426 84.3984 331.559 84.8125 330.418 85.0938C329.277 85.3672 327.906 85.5078 326.305 85.5156C324.688 85.5078 323.309 85.3672 322.168 85.0938C321.027 84.8125 320.156 84.3984 319.555 83.8516C318.953 83.3047 318.652 82.6367 318.652 81.8477C318.652 81.0742 318.953 80.418 319.555 79.8789C320.156 79.332 321.027 78.9219 322.168 78.6484C323.316 78.375 324.695 78.2383 326.305 78.2383ZM326.305 80.1484C325.219 80.1484 324.309 80.2148 323.574 80.3477C322.848 80.4805 322.297 80.6758 321.922 80.9336C321.555 81.1836 321.375 81.4883 321.383 81.8477C321.375 82.2383 321.555 82.5625 321.922 82.8203C322.297 83.0703 322.84 83.2578 323.551 83.3828C324.27 83.5078 325.188 83.5703 326.305 83.5703C327.414 83.5703 328.328 83.5078 329.047 83.3828C329.773 83.2578 330.32 83.0703 330.688 82.8203C331.055 82.5625 331.238 82.2383 331.238 81.8477C331.238 81.4883 331.055 81.1836 330.688 80.9336C330.32 80.6758 329.766 80.4805 329.023 80.3477C328.289 80.2148 327.383 80.1484 326.305 80.1484ZM335.949 88.7383H316.66V86.6523H335.949V88.7383ZM333.559 95.3359H321.512V97.457H318.934V93.4961H330.98V92.0781H318.922V90.1562H333.559V95.3359ZM334.133 98.8984H318.934V96.9062H334.133V98.8984ZM350.035 78.8359C351.098 78.8281 352.051 79.0117 352.895 79.3867C353.738 79.7617 354.395 80.2891 354.863 80.9688C355.332 81.6406 355.566 82.4102 355.566 83.2773C355.566 84.1367 355.332 84.9023 354.863 85.5742C354.395 86.2461 353.738 86.7734 352.895 87.1562C352.051 87.5312 351.098 87.7188 350.035 87.7188C348.98 87.7188 348.035 87.5312 347.199 87.1562C346.363 86.7734 345.707 86.2461 345.23 85.5742C344.754 84.9023 344.516 84.1367 344.516 83.2773C344.516 82.4102 344.754 81.6406 345.23 80.9688C345.707 80.2891 346.359 79.7617 347.188 79.3867C348.023 79.0117 348.973 78.8281 350.035 78.8359ZM350.035 80.9336C349.457 80.9336 348.941 81.0273 348.488 81.2148C348.035 81.4023 347.68 81.6758 347.422 82.0352C347.164 82.3867 347.039 82.8008 347.047 83.2773C347.039 83.7383 347.164 84.1445 347.422 84.4961C347.68 84.8398 348.031 85.1094 348.477 85.3047C348.93 85.4922 349.449 85.5859 350.035 85.5859C350.637 85.5859 351.168 85.4922 351.629 85.3047C352.09 85.1094 352.449 84.8398 352.707 84.4961C352.965 84.1523 353.094 83.7461 353.094 83.2773C353.094 82.8008 352.965 82.3867 352.707 82.0352C352.449 81.6758 352.086 81.4023 351.617 81.2148C351.156 81.0273 350.629 80.9336 350.035 80.9336ZM351.465 98.4414H348.863V89.9219H351.465V98.4414ZM360.816 99.0742H358.238V77.9219H360.816V99.0742ZM343.121 89.1719C345.605 89.1797 348.008 89.1328 350.328 89.0312C352.656 88.9297 354.84 88.7227 356.879 88.4102L357.055 90.332C355.688 90.6055 354.266 90.8086 352.789 90.9414C351.32 91.0742 349.93 91.168 348.617 91.2227C347.305 91.2773 345.828 91.3125 344.188 91.3281C344.039 91.3203 343.918 91.3203 343.824 91.3281C343.73 91.3281 343.609 91.3281 343.461 91.3281L343.121 89.1719ZM374.176 83.3594H363.816V81.2734H374.176V83.3594ZM369.02 84.4727C369.91 84.4727 370.707 84.6836 371.41 85.1055C372.113 85.5273 372.66 86.1133 373.051 86.8633C373.449 87.6133 373.652 88.4648 373.66 89.418C373.652 90.3789 373.449 91.2383 373.051 91.9961C372.66 92.7461 372.113 93.3359 371.41 93.7656C370.707 94.1953 369.91 94.4102 369.02 94.4102C368.145 94.4102 367.352 94.1953 366.641 93.7656C365.938 93.3359 365.387 92.7461 364.988 91.9961C364.598 91.2383 364.402 90.3789 364.402 89.418C364.402 88.4727 364.602 87.625 365 86.875C365.398 86.1172 365.949 85.5273 366.652 85.1055C367.355 84.6836 368.145 84.4727 369.02 84.4727ZM369.02 86.6406C368.566 86.6406 368.164 86.7578 367.812 86.9922C367.469 87.2188 367.195 87.543 366.992 87.9648C366.797 88.3789 366.703 88.8633 366.711 89.418C366.703 89.9805 366.797 90.4688 366.992 90.8828C367.195 91.2891 367.469 91.6055 367.812 91.832C368.164 92.0586 368.566 92.1719 369.02 92.1719C369.473 92.1719 369.875 92.0586 370.227 91.832C370.586 91.6055 370.863 91.2891 371.059 90.8828C371.262 90.4688 371.363 89.9805 371.363 89.418C371.363 88.8633 371.262 88.3789 371.059 87.9648C370.863 87.543 370.586 87.2188 370.227 86.9922C369.875 86.7578 369.473 86.6406 369.02 86.6406ZM382.062 99.0625H379.578V77.8984H382.062V99.0625ZM380.398 88.7148H376.684V86.6172H380.398V88.7148ZM377.516 98.1133H375.066V78.3555H377.516V98.1133ZM370.309 82.5742H367.742V78.5078H370.309V82.5742Z" fill="#41BCD8"/>
<path d="M108.664 135.121H106.062V113.898H108.664V135.121ZM111.934 124.082H108.078V121.938H111.934V124.082ZM94.6836 127.762C96.6523 127.762 98.3789 127.715 99.8633 127.621C101.348 127.52 102.848 127.332 104.363 127.059L104.656 129.262C103.109 129.535 101.586 129.715 100.086 129.801C98.5859 129.887 96.7852 129.926 94.6836 129.918H92.9375V127.762H94.6836ZM102.852 118.023H95.5391V128.816H92.9375V115.902H102.852V118.023ZM132.16 127.551H112.801V125.441H132.16V127.551ZM130.227 134.688H115.273V132.555H130.227V134.688ZM117.887 133.434H115.273V128.887H117.887V133.434ZM129.77 120.121H117.84V122.559H115.25V118.234H127.145V116.5H115.191V114.473H129.77V120.121ZM130.18 123.895H115.25V121.902H130.18V123.895ZM144.266 115.07C145.203 115.07 146.043 115.273 146.785 115.68C147.527 116.086 148.105 116.664 148.52 117.414C148.941 118.156 149.152 119 149.152 119.945C149.152 120.883 148.941 121.723 148.52 122.465C148.105 123.199 147.527 123.777 146.785 124.199C146.043 124.613 145.203 124.82 144.266 124.82C143.328 124.82 142.492 124.613 141.758 124.199C141.031 123.777 140.457 123.199 140.035 122.465C139.621 121.723 139.414 120.883 139.414 119.945C139.414 118.992 139.621 118.145 140.035 117.402C140.457 116.66 141.031 116.086 141.758 115.68C142.492 115.273 143.328 115.07 144.266 115.07ZM144.266 117.18C143.773 117.18 143.336 117.293 142.953 117.52C142.578 117.738 142.281 118.059 142.062 118.48C141.852 118.895 141.75 119.383 141.758 119.945C141.75 120.492 141.852 120.969 142.062 121.375C142.281 121.781 142.578 122.098 142.953 122.324C143.336 122.551 143.773 122.664 144.266 122.664C144.75 122.664 145.184 122.551 145.566 122.324C145.949 122.098 146.246 121.781 146.457 121.375C146.668 120.969 146.773 120.492 146.773 119.945C146.773 119.383 146.668 118.895 146.457 118.48C146.246 118.059 145.949 117.738 145.566 117.52C145.184 117.293 144.75 117.18 144.266 117.18ZM157.391 125.441H154.906V113.922H157.391V125.441ZM155.715 120.613H152.047V118.469H155.715V120.613ZM152.797 125.277H150.371V114.309H152.797V125.277ZM145.684 128.441H154.812V126.309H157.391V134.816H143.094V126.309H145.684V128.441ZM154.812 132.719V130.527H145.684V132.719H154.812ZM172.66 114.836C173.723 114.828 174.676 115.012 175.52 115.387C176.363 115.762 177.02 116.289 177.488 116.969C177.957 117.641 178.191 118.41 178.191 119.277C178.191 120.137 177.957 120.902 177.488 121.574C177.02 122.246 176.363 122.773 175.52 123.156C174.676 123.531 173.723 123.719 172.66 123.719C171.605 123.719 170.66 123.531 169.824 123.156C168.988 122.773 168.332 122.246 167.855 121.574C167.379 120.902 167.141 120.137 167.141 119.277C167.141 118.41 167.379 117.641 167.855 116.969C168.332 116.289 168.984 115.762 169.812 115.387C170.648 115.012 171.598 114.828 172.66 114.836ZM172.66 116.934C172.082 116.934 171.566 117.027 171.113 117.215C170.66 117.402 170.305 117.676 170.047 118.035C169.789 118.387 169.664 118.801 169.672 119.277C169.664 119.738 169.789 120.145 170.047 120.496C170.305 120.84 170.656 121.109 171.102 121.305C171.555 121.492 172.074 121.586 172.66 121.586C173.262 121.586 173.793 121.492 174.254 121.305C174.715 121.109 175.074 120.84 175.332 120.496C175.59 120.152 175.719 119.746 175.719 119.277C175.719 118.801 175.59 118.387 175.332 118.035C175.074 117.676 174.711 117.402 174.242 117.215C173.781 117.027 173.254 116.934 172.66 116.934ZM174.09 134.441H171.488V125.922H174.09V134.441ZM183.441 135.074H180.863V113.922H183.441V135.074ZM165.746 125.172C168.23 125.18 170.633 125.133 172.953 125.031C175.281 124.93 177.465 124.723 179.504 124.41L179.68 126.332C178.312 126.605 176.891 126.809 175.414 126.941C173.945 127.074 172.555 127.168 171.242 127.223C169.93 127.277 168.453 127.312 166.812 127.328C166.664 127.32 166.543 127.32 166.449 127.328C166.355 127.328 166.234 127.328 166.086 127.328L165.746 125.172ZM198.781 123.977H195.055V121.879H198.781V123.977ZM204.758 135.062H202.25V113.898H204.758V135.062ZM200.398 134.066H197.926V114.262H200.398V134.066ZM191.27 115.504C192.199 115.504 193.012 115.812 193.707 116.43C194.41 117.039 194.953 117.914 195.336 119.055C195.719 120.195 195.91 121.531 195.91 123.062C195.91 124.602 195.719 125.941 195.336 127.082C194.953 128.223 194.41 129.102 193.707 129.719C193.012 130.336 192.199 130.645 191.27 130.645C190.348 130.645 189.543 130.336 188.855 129.719C188.176 129.102 187.641 128.223 187.25 127.082C186.867 125.941 186.676 124.602 186.676 123.062C186.676 121.531 186.867 120.195 187.25 119.055C187.641 117.914 188.176 117.039 188.855 116.43C189.543 115.812 190.348 115.504 191.27 115.504ZM191.27 117.965C190.816 117.965 190.426 118.16 190.098 118.551C189.77 118.934 189.52 119.508 189.348 120.273C189.176 121.039 189.094 121.969 189.102 123.062C189.094 124.156 189.176 125.082 189.348 125.84C189.52 126.598 189.77 127.172 190.098 127.562C190.426 127.953 190.816 128.148 191.27 128.148C191.73 128.148 192.129 127.953 192.465 127.562C192.801 127.172 193.055 126.598 193.227 125.84C193.406 125.082 193.496 124.156 193.496 123.062C193.496 121.969 193.406 121.039 193.227 120.273C193.055 119.508 192.801 118.934 192.465 118.551C192.129 118.16 191.73 117.965 191.27 117.965ZM220.555 131.242H217.941V125.383H220.555V131.242ZM227.188 131.266H224.586V125.395H227.188V131.266ZM232.309 132.648H212.949V130.539H232.309V132.648ZM230.609 117.801H214.52V115.691H230.609V117.801ZM230.527 126.18H214.602V124.059H230.527V126.18ZM220.191 124.422H217.578V117.414H220.191V124.422ZM227.516 124.422H224.949V117.414H227.516V124.422ZM241.203 118.984C241.203 120.75 240.961 122.414 240.477 123.977C240 125.539 239.297 126.918 238.367 128.113C237.445 129.309 236.34 130.211 235.051 130.82L233.457 128.641C234.605 128.148 235.602 127.406 236.445 126.414C237.289 125.414 237.934 124.273 238.379 122.992C238.824 121.703 239.051 120.367 239.059 118.984V115.598H241.203V118.984ZM241.684 118.984C241.684 120.297 241.902 121.566 242.34 122.793C242.777 124.02 243.41 125.117 244.238 126.086C245.066 127.047 246.043 127.766 247.168 128.242L245.621 130.328C244.355 129.742 243.266 128.879 242.352 127.738C241.438 126.59 240.738 125.266 240.254 123.766C239.77 122.266 239.527 120.672 239.527 118.984V115.598H241.684V118.984ZM251.305 135.121H248.668V113.898H251.305V135.121ZM273.77 125.465H254.41V123.508H273.77V125.465ZM271.426 131.559H259.273V133.645H256.66V129.883H268.836V128.582H256.648V126.73H271.426V131.559ZM272.059 134.852H256.66V133.047H272.059V134.852ZM271.379 119.148H259.449V121.105H256.859V117.461H268.754V116.172H256.801V114.367H271.379V119.148ZM271.742 122.312H256.859V120.531H271.742V122.312ZM293.398 119.242H280.918V117.145H293.398V119.242ZM287.152 120.613C288.105 120.613 288.965 120.828 289.73 121.258C290.504 121.688 291.105 122.281 291.535 123.039C291.973 123.797 292.195 124.652 292.203 125.605C292.195 126.551 291.973 127.402 291.535 128.16C291.105 128.91 290.504 129.504 289.73 129.941C288.965 130.371 288.105 130.586 287.152 130.586C286.199 130.586 285.336 130.371 284.562 129.941C283.789 129.504 283.18 128.91 282.734 128.16C282.297 127.402 282.078 126.551 282.078 125.605C282.078 124.652 282.297 123.797 282.734 123.039C283.18 122.281 283.789 121.688 284.562 121.258C285.336 120.828 286.199 120.613 287.152 120.613ZM287.152 122.828C286.652 122.828 286.199 122.945 285.793 123.18C285.395 123.414 285.082 123.742 284.855 124.164C284.629 124.578 284.52 125.059 284.527 125.605C284.52 126.16 284.629 126.648 284.855 127.07C285.082 127.484 285.395 127.805 285.793 128.031C286.199 128.258 286.652 128.371 287.152 128.371C287.66 128.371 288.113 128.258 288.512 128.031C288.918 127.805 289.234 127.484 289.461 127.07C289.695 126.648 289.812 126.16 289.812 125.605C289.812 125.059 289.695 124.574 289.461 124.152C289.234 123.723 288.918 123.395 288.512 123.168C288.105 122.941 287.652 122.828 287.152 122.828ZM288.441 118.199H285.84V114.203H288.441V118.199ZM298.637 135.062H296.059V113.898H298.637V135.062ZM298.109 124.586H292.965V122.453H298.109V124.586ZM308.738 124.949H306.125V121.035H308.738V124.949ZM316.367 124.949H313.766V121.035H316.367V124.949ZM320.926 126.191H301.637V124.082H320.926V126.191ZM311.258 127.457C312.773 127.457 314.082 127.602 315.184 127.891C316.293 128.18 317.137 128.609 317.715 129.18C318.301 129.75 318.594 130.438 318.594 131.242C318.594 132.055 318.301 132.742 317.715 133.305C317.137 133.867 316.297 134.297 315.195 134.594C314.094 134.891 312.781 135.039 311.258 135.039C309.711 135.039 308.387 134.891 307.285 134.594C306.184 134.297 305.34 133.867 304.754 133.305C304.168 132.742 303.875 132.055 303.875 131.242C303.875 130.438 304.168 129.75 304.754 129.18C305.34 128.609 306.184 128.18 307.285 127.891C308.387 127.602 309.711 127.457 311.258 127.457ZM311.258 129.426C310.227 129.434 309.359 129.504 308.656 129.637C307.961 129.77 307.43 129.973 307.062 130.246C306.703 130.52 306.527 130.852 306.535 131.242C306.527 131.641 306.703 131.977 307.062 132.25C307.43 132.516 307.961 132.723 308.656 132.871C309.359 133.012 310.227 133.082 311.258 133.082C312.266 133.082 313.121 133.012 313.824 132.871C314.527 132.723 315.062 132.516 315.43 132.25C315.797 131.977 315.98 131.641 315.98 131.242C315.98 130.852 315.797 130.52 315.43 130.246C315.062 129.973 314.527 129.77 313.824 129.637C313.129 129.504 312.273 129.434 311.258 129.426ZM311.281 114.238C312.82 114.238 314.164 114.402 315.312 114.73C316.461 115.051 317.344 115.516 317.961 116.125C318.578 116.727 318.887 117.441 318.887 118.27C318.887 119.098 318.578 119.812 317.961 120.414C317.344 121.008 316.461 121.461 315.312 121.773C314.172 122.086 312.828 122.242 311.281 122.242C309.719 122.242 308.363 122.086 307.215 121.773C306.066 121.461 305.18 121.008 304.555 120.414C303.938 119.812 303.629 119.098 303.629 118.27C303.629 117.441 303.938 116.727 304.555 116.125C305.18 115.516 306.066 115.051 307.215 114.73C308.363 114.402 309.719 114.238 311.281 114.238ZM311.281 116.254C310.227 116.254 309.328 116.336 308.586 116.5C307.852 116.656 307.293 116.887 306.91 117.191C306.527 117.488 306.336 117.848 306.336 118.27C306.336 118.699 306.527 119.062 306.91 119.359C307.293 119.656 307.852 119.883 308.586 120.039C309.328 120.188 310.227 120.262 311.281 120.262C312.32 120.262 313.207 120.188 313.941 120.039C314.676 119.883 315.238 119.656 315.629 119.359C316.02 119.062 316.215 118.699 316.215 118.27C316.215 117.848 316.02 117.488 315.629 117.191C315.238 116.887 314.672 116.656 313.93 116.5C313.195 116.336 312.312 116.254 311.281 116.254ZM332.691 119.359H322.332V117.273H332.691V119.359ZM327.535 120.473C328.426 120.473 329.223 120.684 329.926 121.105C330.629 121.527 331.176 122.113 331.566 122.863C331.965 123.613 332.168 124.465 332.176 125.418C332.168 126.379 331.965 127.238 331.566 127.996C331.176 128.746 330.629 129.336 329.926 129.766C329.223 130.195 328.426 130.41 327.535 130.41C326.66 130.41 325.867 130.195 325.156 129.766C324.453 129.336 323.902 128.746 323.504 127.996C323.113 127.238 322.918 126.379 322.918 125.418C322.918 124.473 323.117 123.625 323.516 122.875C323.914 122.117 324.465 121.527 325.168 121.105C325.871 120.684 326.66 120.473 327.535 120.473ZM327.535 122.641C327.082 122.641 326.68 122.758 326.328 122.992C325.984 123.219 325.711 123.543 325.508 123.965C325.312 124.379 325.219 124.863 325.227 125.418C325.219 125.98 325.312 126.469 325.508 126.883C325.711 127.289 325.984 127.605 326.328 127.832C326.68 128.059 327.082 128.172 327.535 128.172C327.988 128.172 328.391 128.059 328.742 127.832C329.102 127.605 329.379 127.289 329.574 126.883C329.777 126.469 329.879 125.98 329.879 125.418C329.879 124.863 329.777 124.379 329.574 123.965C329.379 123.543 329.102 123.219 328.742 122.992C328.391 122.758 327.988 122.641 327.535 122.641ZM340.578 135.062H338.094V113.898H340.578V135.062ZM338.914 124.715H335.199V122.617H338.914V124.715ZM336.031 134.113H333.582V114.355H336.031V134.113ZM328.824 118.574H326.258V114.508H328.824V118.574ZM353.539 116.898C353.539 118.141 353.184 119.277 352.473 120.309C351.77 121.332 350.777 122.191 349.496 122.887C348.215 123.582 346.75 124.051 345.102 124.293L344.117 122.254C345.523 122.066 346.77 121.703 347.855 121.164C348.941 120.625 349.781 119.984 350.375 119.242C350.969 118.492 351.266 117.711 351.266 116.898V116.172H353.539V116.898ZM354.266 116.898C354.266 117.711 354.559 118.492 355.145 119.242C355.738 119.984 356.578 120.625 357.664 121.164C358.75 121.703 360 122.066 361.414 122.254L360.477 124.293C358.812 124.051 357.336 123.582 356.047 122.887C354.766 122.191 353.77 121.332 353.059 120.309C352.348 119.277 351.992 118.141 351.992 116.898V116.172H354.266V116.898ZM353.996 135.074H351.43V127.176H353.996V135.074ZM362.41 127.809H343.121V125.711H362.41V127.809ZM360.641 117.145H344.867V115.094H360.641V117.145ZM376.051 123.344H372.254V121.199H376.051V123.344ZM369.957 119.57C369.957 121.164 369.777 122.684 369.418 124.129C369.066 125.574 368.527 126.875 367.801 128.031C367.074 129.18 366.18 130.074 365.117 130.715L363.512 128.781C364.496 128.18 365.32 127.395 365.984 126.426C366.648 125.449 367.141 124.379 367.461 123.215C367.781 122.051 367.945 120.836 367.953 119.57V115.785H369.957V119.57ZM370.473 119.465C370.473 120.676 370.613 121.832 370.895 122.934C371.184 124.035 371.629 125.051 372.23 125.98C372.832 126.902 373.594 127.652 374.516 128.23L373.086 130.246C372.031 129.613 371.16 128.734 370.473 127.609C369.785 126.484 369.281 125.234 368.961 123.859C368.648 122.484 368.496 121.02 368.504 119.465V115.785H370.473V119.465ZM382.133 135.062H379.625V113.898H382.133V135.062ZM377.715 134.066H375.277V114.262H377.715V134.066ZM391.648 130.797H389.082V124.727H391.648V130.797ZM399.488 130.797H396.863V124.727H399.488V130.797ZM403.965 132.52H384.605V130.375H403.965V132.52ZM394.25 115.035C395.758 115.035 397.109 115.27 398.305 115.738C399.5 116.199 400.438 116.855 401.117 117.707C401.797 118.559 402.137 119.535 402.137 120.637C402.137 121.746 401.797 122.723 401.117 123.566C400.445 124.41 399.508 125.066 398.305 125.535C397.109 125.996 395.758 126.227 394.25 126.227C392.727 126.227 391.367 125.996 390.172 125.535C388.984 125.066 388.051 124.41 387.371 123.566C386.699 122.723 386.363 121.746 386.363 120.637C386.363 119.535 386.699 118.559 387.371 117.707C388.051 116.855 388.984 116.199 390.172 115.738C391.367 115.27 392.727 115.035 394.25 115.035ZM394.25 117.121C393.188 117.113 392.254 117.25 391.449 117.531C390.645 117.812 390.02 118.223 389.574 118.762C389.137 119.293 388.918 119.918 388.918 120.637C388.918 121.355 389.137 121.984 389.574 122.523C390.02 123.055 390.645 123.469 391.449 123.766C392.254 124.055 393.188 124.199 394.25 124.199C395.289 124.199 396.211 124.051 397.016 123.754C397.82 123.457 398.445 123.043 398.891 122.512C399.344 121.98 399.57 121.355 399.57 120.637C399.57 119.918 399.344 119.293 398.891 118.762C398.445 118.223 397.82 117.812 397.016 117.531C396.211 117.25 395.289 117.113 394.25 117.121Z" fill="black"/>
</g>
<defs>
<clipPath id="clip0_105_120">
<rect width="496" height="447" fill="white"/>
</clipPath>
<clipPath id="clip1_105_120">
<rect width="40" height="40" fill="white" transform="matrix(1 0 0 -1 113 327)"/>
</clipPath>
<clipPath id="clip2_105_120">
<rect width="32.5581" height="24.3721" fill="white" transform="matrix(1 0 0 -1 116.721 319.186)"/>
</clipPath>
</defs>
</svg>
